<svg xmlns="http://www.w3.org/2000/svg" xmlns:xlink="http://www.w3.org/1999/xlink" width="2000" zoomAndPan="magnify" viewBox="0 0 1500 749.999995" height="1000" preserveAspectRatio="xMidYMid meet" version="1.0"><defs><g/></defs><rect x="-150" width="1800" fill="#ffffff" y="-74.999999" height="899.999994" fill-opacity="1"/><rect x="-150" width="1800" fill="#f5f0e8" y="-74.999999" height="899.999994" fill-opacity="1"/><g fill="#a0a0a0" fill-opacity="1"><g transform="translate(126.932769, 465.749997)"><g><path d="M 111.625 -228.515625 L 41.3125 32.8125 L 3.21875 32.8125 L 73.53125 -228.515625 Z M 111.625 -228.515625 "/></g></g></g><g fill="#a0a0a0" fill-opacity="1"><g transform="translate(222.576521, 465.749997)"><g/></g></g><g fill="#a0a0a0" fill-opacity="1"><g transform="translate(272.956604, 465.749997)"><g><path d="M 100.921875 -161.71875 L 100.921875 -128.171875 L 2.78125 -128.171875 L 2.78125 -161.71875 Z M 26.375 -201.421875 L 70.015625 -201.421875 L 70.015625 -47.90625 C 70.015625 -42.726562 71.160156 -38.941406 73.453125 -36.546875 C 75.753906 -34.148438 79.59375 -32.953125 84.96875 -32.953125 C 86.914062 -32.953125 89.425781 -33.125 92.5 -33.46875 C 95.582031 -33.8125 97.953125 -34.128906 99.609375 -34.421875 L 104.4375 -1.171875 C 100.050781 -0.0976562 95.460938 0.65625 90.671875 1.09375 C 85.890625 1.539062 81.253906 1.765625 76.765625 1.765625 C 60.160156 1.765625 47.609375 -2.066406 39.109375 -9.734375 C 30.617188 -17.398438 26.375 -28.609375 26.375 -43.359375 Z M 26.375 -201.421875 "/></g></g></g><g fill="#a0a0a0" fill-opacity="1"><g transform="translate(364.352297, 465.749997)"><g><path d="M 61.671875 -92.875 L 61.671875 0 L 18.015625 0 L 18.015625 -218.265625 L 61.078125 -218.265625 L 61.078125 -121 L 56.546875 -121 C 60.941406 -134.664062 67.554688 -145.257812 76.390625 -152.78125 C 85.234375 -160.300781 96.585938 -164.0625 110.453125 -164.0625 C 121.679688 -164.0625 131.492188 -161.617188 139.890625 -156.734375 C 148.285156 -151.859375 154.800781 -144.828125 159.4375 -135.640625 C 164.082031 -126.460938 166.40625 -115.429688 166.40625 -102.546875 L 166.40625 0 L 122.609375 0 L 122.609375 -94.78125 C 122.609375 -105.03125 120.019531 -113.007812 114.84375 -118.71875 C 109.664062 -124.4375 102.441406 -127.296875 93.171875 -127.296875 C 87.015625 -127.296875 81.566406 -125.953125 76.828125 -123.265625 C 72.097656 -120.578125 68.390625 -116.691406 65.703125 -111.609375 C 63.015625 -106.535156 61.671875 -100.289062 61.671875 -92.875 Z M 61.671875 -92.875 "/></g></g></g><g fill="#a0a0a0" fill-opacity="1"><g transform="translate(529.429652, 465.749997)"><g><path d="M 91.265625 3.21875 C 74.753906 3.21875 60.515625 -0.195312 48.546875 -7.03125 C 36.585938 -13.863281 27.363281 -23.53125 20.875 -36.03125 C 14.382812 -48.53125 11.140625 -63.226562 11.140625 -80.125 C 11.140625 -96.820312 14.359375 -111.445312 20.796875 -124 C 27.242188 -136.550781 36.328125 -146.363281 48.046875 -153.4375 C 59.765625 -160.519531 73.484375 -164.0625 89.203125 -164.0625 C 100.046875 -164.0625 110.101562 -162.300781 119.375 -158.78125 C 128.65625 -155.269531 136.785156 -150.070312 143.765625 -143.1875 C 150.753906 -136.300781 156.175781 -127.707031 160.03125 -117.40625 C 163.894531 -107.101562 165.828125 -95.210938 165.828125 -81.734375 L 165.828125 -69.578125 L 28.5625 -69.578125 L 28.5625 -97.125 L 144.578125 -97.125 L 124.21875 -89.9375 C 124.21875 -98.34375 122.898438 -105.617188 120.265625 -111.765625 C 117.628906 -117.921875 113.742188 -122.679688 108.609375 -126.046875 C 103.484375 -129.421875 97.164062 -131.109375 89.65625 -131.109375 C 82.132812 -131.109375 75.734375 -129.394531 70.453125 -125.96875 C 65.179688 -122.550781 61.15625 -117.863281 58.375 -111.90625 C 55.59375 -105.957031 54.203125 -99.125 54.203125 -91.40625 L 54.203125 -72.078125 C 54.203125 -62.992188 55.765625 -55.273438 58.890625 -48.921875 C 62.015625 -42.578125 66.429688 -37.769531 72.140625 -34.5 C 77.859375 -31.226562 84.523438 -29.59375 92.140625 -29.59375 C 97.316406 -29.59375 102.023438 -30.347656 106.265625 -31.859375 C 110.515625 -33.367188 114.128906 -35.566406 117.109375 -38.453125 C 120.085938 -41.335938 122.359375 -44.878906 123.921875 -49.078125 L 163.625 -43.359375 C 161.082031 -33.984375 156.515625 -25.800781 149.921875 -18.8125 C 143.335938 -11.832031 135.085938 -6.414062 125.171875 -2.5625 C 115.253906 1.289062 103.953125 3.21875 91.265625 3.21875 Z M 91.265625 3.21875 "/></g></g></g><g fill="#f3c709" fill-opacity="1"><g transform="translate(686.608526, 465.749997)"><g><path d="M 82.765625 3.375 C 69.578125 3.375 57.878906 1.445312 47.671875 -2.40625 C 37.472656 -6.269531 29.175781 -11.863281 22.78125 -19.1875 C 16.382812 -26.507812 12.351562 -35.300781 10.6875 -45.5625 L 51.859375 -51.125 C 53.710938 -43.695312 57.273438 -38.078125 62.546875 -34.265625 C 67.816406 -30.460938 74.847656 -28.5625 83.640625 -28.5625 C 91.941406 -28.5625 98.484375 -30.148438 103.265625 -33.328125 C 108.054688 -36.503906 110.453125 -40.53125 110.453125 -45.40625 C 110.453125 -49.601562 108.71875 -53.046875 105.25 -55.734375 C 101.78125 -58.421875 96.582031 -60.5 89.65625 -61.96875 L 61.671875 -67.53125 C 46.046875 -70.75 34.328125 -76.21875 26.515625 -83.9375 C 18.703125 -91.65625 14.796875 -101.613281 14.796875 -113.8125 C 14.796875 -124.070312 17.601562 -132.960938 23.21875 -140.484375 C 28.832031 -148.003906 36.738281 -153.8125 46.9375 -157.90625 C 57.144531 -162.007812 69.085938 -164.0625 82.765625 -164.0625 C 95.847656 -164.0625 107.175781 -162.207031 116.75 -158.5 C 126.320312 -154.789062 134.007812 -149.515625 139.8125 -142.671875 C 145.625 -135.835938 149.3125 -127.78125 150.875 -118.5 L 111.765625 -113.09375 C 110.398438 -118.851562 107.347656 -123.5625 102.609375 -127.21875 C 97.878906 -130.882812 91.554688 -132.71875 83.640625 -132.71875 C 76.316406 -132.71875 70.285156 -131.175781 65.546875 -128.09375 C 60.816406 -125.019531 58.453125 -121.039062 58.453125 -116.15625 C 58.453125 -112.0625 60.0625 -108.617188 63.28125 -105.828125 C 66.5 -103.046875 71.773438 -100.925781 79.109375 -99.46875 L 108.40625 -93.609375 C 124.21875 -90.484375 135.957031 -85.304688 143.625 -78.078125 C 151.289062 -70.847656 155.125 -61.425781 155.125 -49.8125 C 155.125 -39.164062 152.046875 -29.863281 145.890625 -21.90625 C 139.742188 -13.945312 131.222656 -7.742188 120.328125 -3.296875 C 109.441406 1.148438 96.921875 3.375 82.765625 3.375 Z M 82.765625 3.375 "/></g></g></g><g fill="#f3c709" fill-opacity="1"><g transform="translate(832.789384, 465.749997)"><g><path d="M 61.671875 -218.265625 L 61.671875 0 L 18.015625 0 L 18.015625 -218.265625 Z M 61.671875 -218.265625 "/></g></g></g><g fill="#f3c709" fill-opacity="1"><g transform="translate(893.276888, 465.749997)"><g><path d="M 64.015625 3.078125 C 53.660156 3.078125 44.378906 1.269531 36.171875 -2.34375 C 27.972656 -5.957031 21.53125 -11.351562 16.84375 -18.53125 C 12.15625 -25.707031 9.8125 -34.617188 9.8125 -45.265625 C 9.8125 -54.347656 11.472656 -61.914062 14.796875 -67.96875 C 18.117188 -74.019531 22.660156 -78.898438 28.421875 -82.609375 C 34.179688 -86.328125 40.75 -89.132812 48.125 -91.03125 C 55.5 -92.9375 63.238281 -94.28125 71.34375 -95.0625 C 80.8125 -96.039062 88.425781 -96.945312 94.1875 -97.78125 C 99.945312 -98.613281 104.144531 -99.90625 106.78125 -101.65625 C 109.425781 -103.414062 110.75 -106.054688 110.75 -109.578125 L 110.75 -110.296875 C 110.75 -114.796875 109.742188 -118.628906 107.734375 -121.796875 C 105.734375 -124.972656 102.828125 -127.414062 99.015625 -129.125 C 95.210938 -130.832031 90.578125 -131.6875 85.109375 -131.6875 C 79.546875 -131.6875 74.6875 -130.832031 70.53125 -129.125 C 66.382812 -127.414062 63.015625 -125.117188 60.421875 -122.234375 C 57.835938 -119.359375 56.007812 -116.113281 54.9375 -112.5 L 14.65625 -117.625 C 16.894531 -127.394531 21.1875 -135.742188 27.53125 -142.671875 C 33.882812 -149.609375 41.992188 -154.90625 51.859375 -158.5625 C 61.722656 -162.226562 72.953125 -164.0625 85.546875 -164.0625 C 94.722656 -164.0625 103.4375 -162.988281 111.6875 -160.84375 C 119.945312 -158.695312 127.296875 -155.375 133.734375 -150.875 C 140.179688 -146.382812 145.234375 -140.695312 148.890625 -133.8125 C 152.554688 -126.925781 154.390625 -118.695312 154.390625 -109.125 L 154.390625 0 L 112.640625 0 L 112.640625 -22.5625 L 111.328125 -22.5625 C 108.691406 -17.476562 105.203125 -13.007812 100.859375 -9.15625 C 96.515625 -5.300781 91.3125 -2.296875 85.25 -0.140625 C 79.195312 2.003906 72.117188 3.078125 64.015625 3.078125 Z M 76.3125 -27.546875 C 83.25 -27.546875 89.304688 -28.910156 94.484375 -31.640625 C 99.660156 -34.378906 103.710938 -38.039062 106.640625 -42.625 C 109.566406 -47.21875 111.03125 -52.394531 111.03125 -58.15625 L 111.03125 -75.296875 C 109.664062 -74.515625 107.757812 -73.734375 105.3125 -72.953125 C 102.875 -72.171875 100.09375 -71.484375 96.96875 -70.890625 C 93.84375 -70.304688 90.691406 -69.769531 87.515625 -69.28125 C 84.347656 -68.800781 81.445312 -68.363281 78.8125 -67.96875 C 73.539062 -67.1875 68.851562 -65.941406 64.75 -64.234375 C 60.644531 -62.523438 57.46875 -60.226562 55.21875 -57.34375 C 52.976562 -54.46875 51.859375 -50.878906 51.859375 -46.578125 C 51.859375 -42.484375 52.90625 -39.019531 55 -36.1875 C 57.101562 -33.351562 59.984375 -31.203125 63.640625 -29.734375 C 67.304688 -28.273438 71.53125 -27.546875 76.3125 -27.546875 Z M 76.3125 -27.546875 "/></g></g></g><g fill="#f3c709" fill-opacity="1"><g transform="translate(1046.342498, 465.749997)"><g><path d="M 82.765625 3.375 C 69.578125 3.375 57.878906 1.445312 47.671875 -2.40625 C 37.472656 -6.269531 29.175781 -11.863281 22.78125 -19.1875 C 16.382812 -26.507812 12.351562 -35.300781 10.6875 -45.5625 L 51.859375 -51.125 C 53.710938 -43.695312 57.273438 -38.078125 62.546875 -34.265625 C 67.816406 -30.460938 74.847656 -28.5625 83.640625 -28.5625 C 91.941406 -28.5625 98.484375 -30.148438 103.265625 -33.328125 C 108.054688 -36.503906 110.453125 -40.53125 110.453125 -45.40625 C 110.453125 -49.601562 108.71875 -53.046875 105.25 -55.734375 C 101.78125 -58.421875 96.582031 -60.5 89.65625 -61.96875 L 61.671875 -67.53125 C 46.046875 -70.75 34.328125 -76.21875 26.515625 -83.9375 C 18.703125 -91.65625 14.796875 -101.613281 14.796875 -113.8125 C 14.796875 -124.070312 17.601562 -132.960938 23.21875 -140.484375 C 28.832031 -148.003906 36.738281 -153.8125 46.9375 -157.90625 C 57.144531 -162.007812 69.085938 -164.0625 82.765625 -164.0625 C 95.847656 -164.0625 107.175781 -162.207031 116.75 -158.5 C 126.320312 -154.789062 134.007812 -149.515625 139.8125 -142.671875 C 145.625 -135.835938 149.3125 -127.78125 150.875 -118.5 L 111.765625 -113.09375 C 110.398438 -118.851562 107.347656 -123.5625 102.609375 -127.21875 C 97.878906 -130.882812 91.554688 -132.71875 83.640625 -132.71875 C 76.316406 -132.71875 70.285156 -131.175781 65.546875 -128.09375 C 60.816406 -125.019531 58.453125 -121.039062 58.453125 -116.15625 C 58.453125 -112.0625 60.0625 -108.617188 63.28125 -105.828125 C 66.5 -103.046875 71.773438 -100.925781 79.109375 -99.46875 L 108.40625 -93.609375 C 124.21875 -90.484375 135.957031 -85.304688 143.625 -78.078125 C 151.289062 -70.847656 155.125 -61.425781 155.125 -49.8125 C 155.125 -39.164062 152.046875 -29.863281 145.890625 -21.90625 C 139.742188 -13.945312 131.222656 -7.742188 120.328125 -3.296875 C 109.441406 1.148438 96.921875 3.375 82.765625 3.375 Z M 82.765625 3.375 "/></g></g></g><g fill="#f3c709" fill-opacity="1"><g transform="translate(1192.523371, 465.749997)"><g><path d="M 61.671875 -92.875 L 61.671875 0 L 18.015625 0 L 18.015625 -218.265625 L 61.078125 -218.265625 L 61.078125 -121 L 56.546875 -121 C 60.941406 -134.664062 67.554688 -145.257812 76.390625 -152.78125 C 85.234375 -160.300781 96.585938 -164.0625 110.453125 -164.0625 C 121.679688 -164.0625 131.492188 -161.617188 139.890625 -156.734375 C 148.285156 -151.859375 154.800781 -144.828125 159.4375 -135.640625 C 164.082031 -126.460938 166.40625 -115.429688 166.40625 -102.546875 L 166.40625 0 L 122.609375 0 L 122.609375 -94.78125 C 122.609375 -105.03125 120.019531 -113.007812 114.84375 -118.71875 C 109.664062 -124.4375 102.441406 -127.296875 93.171875 -127.296875 C 87.015625 -127.296875 81.566406 -125.953125 76.828125 -123.265625 C 72.097656 -120.578125 68.390625 -116.691406 65.703125 -111.609375 C 63.015625 -106.535156 61.671875 -100.289062 61.671875 -92.875 Z M 61.671875 -92.875 "/></g></g></g></svg>